# xmcd CD database file
#
# Track frame offsets:
#	150
#	25422
#	41547
#	55490
#	76870
#	97282
#	112822
#	130705
#	151855
#	168525
#	188425
#	206280
#
# Disc length: 2974 seconds
#
# Revision: 0
# Processed by: cddbd v1.5.1PL0 Copyright (c) Steve Scherf et al.
# Submitted via: CDex 1.51
#
DISCID=910b9c0c
DTITLE=東京佼成ウインド・オーケストラ - Yuming Brass
DYEAR=1900
DGENRE=クラシック (一般)
TTITLE0=あの日にかえりたい
TTITLE1=ルージュの伝言
TTITLE2=中央フリーウェイ
TTITLE3=翳りゆく部屋
TTITLE4=卒業写真
TTITLE5=守ってあげたい
TTITLE6=DANG DANG
TTITLE7=BABYLON
TTITLE8=冷たい雨
TTITLE9=埠頭を渡る風
TTITLE10=残暑
TTITLE11=満月のフォーチュン
EXTD=
EXTT0=
EXTT1=
EXTT2=
EXTT3=
EXTT4=
EXTT5=
EXTT6=
EXTT7=
EXTT8=
EXTT9=
EXTT10=
EXTT11=
PLAYORDER=
